<?xml version="1.0" encoding="UTF-8"?><svg id="a" xmlns="http://www.w3.org/2000/svg" xmlns:xlink="http://www.w3.org/1999/xlink" viewBox="0 0 144.52 143.86"><defs><style>.c{fill:none;}.d{fill:#022a40;}.e{fill:#eae9e6;}.f{fill:#fdfbf7;}.g{fill:#a77046;}.h{fill:#95989d;}.i{fill:#75ccdf;}.j{clip-path:url(#b);}</style><clipPath id="b"><circle class="c" cx="72.46" cy="71.95" r="69.62"/></clipPath></defs><circle class="e" cx="72.46" cy="71.95" r="69.62"/><g class="j"><g><path class="d" d="M40.89,145.15c-.16-2.81,1.69-4.21,3.8-5.4,.96-.54,2.02-.88,3.14-.97,.1-.28-.19-.29-.31-.39-5.18-4.31-7.61-9.84-7.46-16.55,.05-2.46,.28-4.89,.77-7.3,.07-.35,0-.45-.29-.61-2.37-1.34-3.62-3.44-4.02-6.08-.52-3.45,.36-6.5,2.68-9.1,.3-.33,.21-.52,.02-.83-2.11-3.34-4.07-6.78-6.05-10.24-2.76,1.95-4.82,4.47-6.2,7.54-.75,1.66-1.45,3.34-2.1,5.05-.48,1.27-1.52,1.42-2.61,.9-2.78-1.31-4.78-3.48-6.47-5.97-2.85-4.19-4.51-8.83-5.12-13.86-.21-1.77-.46-3.54-.17-5.33,.18-1.11,.64-1.56,1.81-1.47,2.18,.16,4.37,.23,6.56,.35,2.31,.13,4.52-.42,6.77-.75,.31-.05,.43-.19,.33-.57-.27-1.06-.04-1.64,.99-2.08,2.53-1.06,5.11-2,7.85-2.33,1.26-.16,1.74,.12,2.24,1.19,.09,.19,.16,.31,.41,.26,1.43-.28,2.06,.59,2.5,1.74,.1,.27,.24,.53,.43,.93,.23-1.21,.46-2.29,.64-3.38,.39-2.39,1.01-4.72,1.72-7.03,.19-.63,.24-1.01-.49-1.41-2.13-1.16-3.7-2.83-4.3-5.3-.76-3.14,.59-6.87,3.31-8.68,2.76-1.85,5.73-1.95,8.79-.82,1.11,.41,2.16,.97,3.06,1.75,.28,.24,.41,.15,.66-.03,4.85-3.48,10.35-5.28,16.18-6.24,4.68-.77,9.37-.86,14.06-.42,3.07,.29,6.09,.93,9.08,1.81,3.65,1.07,6.97,2.7,10.13,4.73,.4,.26,.68,.22,1.08-.04,2.32-1.53,4.84-2.5,7.67-2.31,3.82,.26,7.18,2.62,8.16,6.64,.76,3.14-.38,6.39-3.16,8.27-.42,.29-.86,.56-1.31,.81-1.18,.65-1.16,.64-.79,1.97,.57,2.04,1.03,4.1,1.45,6.18,.92,4.55,.91,9.11,.74,13.7-.09,2.27-.33,4.53-.47,6.79-.27,4.23,.47,8.36,1.36,12.47,.59,2.73,1.13,5.46,1.49,8.22,.52,4.04,.69,8.1,.09,12.16-.6,4.12-1.79,8-4.12,11.48-1.21,1.8-2.69,3.34-4.41,4.72,3.75,1.07,5.47,3.09,5.44,6.32-.18,.81-.48,1.59-1.22,2.03-.79,.47-1.63,.93-2.51,1.19-2.08,.61-4.21,.56-6.35,.26-3.61-.52-6.99-1.72-10.28-3.24-.21-.1-.41-.26-.68-.21-1.56,.28-3.14,.51-4.71,.75-1.8,.27-3.59,.54-5.4,.67-4.75,.34-9.5,.28-14.24-.27-3.1-.36-6.18-.77-9.2-1.55-.24-.06-.45-.13-.69,0-.86,.43-1.72,.86-2.6,1.23-3.75,1.6-7.62,2.75-11.75,2.53-2.16-.12-4.21-.68-5.62-2.56l-.11-.23h.02s-.02-.08-.06-.1l-.2-.98Zm15.78-.63l.17-.17h0c.3,.03,.54-.1,.79-.25-.18-.17-.4-.22-.63-.26h0c-.13-.15-.32-.15-.5-.16h.01c-.27-.18-.55-.35-.9-.33-.13-.28-.36-.35-.64-.31-.1-.15-.25-.18-.41-.17h.01c-.05-.17-.2-.16-.33-.16h0c-.27-.27-.6-.43-.98-.49h0c-.18-.18-.41-.27-.66-.32h0l-.17-.16h0l-.33-.16h0c-.07-.13-.2-.15-.33-.16h.02c-2.13-1.09-6.17-.4-7.81,1.53-1.04,1.22-.82,2.32,.68,3.16,.5-1.54,1.61-2.29,3.19-2.4,.28-.02,.56,.02,.69,.31,.12,.29-.13,.43-.31,.59-.62,.56-1.18,1.16-1.52,2.08,3.45,.2,6.59-.69,9.64-2.01h-.02c.13-.02,.27-.01,.33-.16h0Zm44.66,.66c.22,.25,.51,.31,.82,.33h-.02c.59,.38,1.27,.49,1.92,.69,2.08,.63,4.2,.83,6.36,.74,.54-.02,.67-.18,.41-.68-.28-.53-.61-1.01-1.07-1.41-.2-.17-.63-.29-.45-.65,.15-.3,.52-.33,.86-.35,.45-.03,.85,.12,1.22,.34,.81,.48,1.17,1.25,1.4,2.12,1.32-.84,1.6-1.8,.88-2.83-1.19-1.7-4.5-2.61-6.38-1.74-.95,.44-1.89,.88-2.84,1.33-.75,.28-1.56,.43-2.21,.94-.22-.03-.43,0-.62,.14l-.29,.06-.23,.14c-.1-.03-.19-.04-.24,.08-.26,.12-.58,.06-.83,.33,.32,.13,.62,.27,.93,.38,.12,.04,.25,.03,.38,.05h0ZM17.98,77.31c-1.56-.06-3.13-.1-4.69-.2-.53-.03-.49,.23-.47,.57,.11,2.1,.26,4.19,.79,6.25,.85,3.27,1.98,6.4,3.85,9.23,1.46,2.21,3.25,4.06,5.44,5.54l1.77-4.37c.04-.07,.1-.13,.13-.2,2.36-5.37,6.21-9.16,11.81-11.07,1.15-.39,2.27-.86,3.37-1.38,.45-.21,.61-.47,.45-1.02-.7-2.36-1.57-4.65-2.52-6.93-.21-.49-.43-.54-.91-.42-2.21,.53-4.38,1.19-6.53,1.91-3.35,1.12-6.75,2.06-10.33,2.04-.73,0-1.46,.02-2.19,.04Zm52.25,44.42c1.05,1.23,1.97,2.36,2.94,3.44,.71,.78,.83,1.62,.38,2.54-.82,1.67-1.88,3.18-3.38,4.3-2.12,1.58-3.77,1.5-5.44-.65-.26-.34-.52-.69-.78-1.04-4.03-5.53-8.06-11.06-12.07-16.61-.33-.46-.56-.53-1.09-.26-2.23,1.14-4.57,1.84-7.12,1.43-.32-.05-.42,.06-.5,.34-.44,1.45-.61,2.96-.76,4.45-.15,1.49,.01,3.03,.13,4.53,.3,3.77,1.58,7.15,4.07,10.03,2.11,2.44,4.77,4.13,7.61,5.57,4.85,2.47,10.06,3.69,15.42,4.35,2.49,.31,4.99,.57,7.5,.65,4.95,.15,9.88-.12,14.76-.95,4.06-.69,8.05-1.65,11.87-3.23,5.52-2.28,9.67-5.94,11.79-11.67,2.03-5.48,2.24-11.13,1.64-16.85-.33-3.13-1.04-6.2-1.69-9.28-.9-4.29-1.61-8.58-1.2-12.99,.22-2.43,.25-4.88,.47-7.32,.27-3.07-.15-6.15-.11-9.22,0-.05,0-.11,0-.16-.55-2.56-.93-5.15-1.72-7.66-1.12-3.56-2.88-6.74-5.27-9.59-.27-.33-.31-.47,.04-.73,.72-.53,1.46-1.03,2.28-1.39,.81-.36,1.52-.2,1.86,.4,.43,.77-.15,1.15-.66,1.5-.32,.22-.34,.35-.13,.69,.73,1.11,1.42,2.24,2.09,3.38,.21,.36,.35,.46,.71,.19,.76-.57,1.57-1.06,2.31-1.65,1.48-1.19,1.95-2.82,1.8-4.62-.16-2.03-1.41-3.38-3.03-4.46-3.48-2.29-8.07-.18-10.18,1.84-.83,.8-.81,.86-1.76,.13-5.86-4.54-12.68-6.39-19.91-7.05-3.7-.34-7.4-.27-11.08,.18-2.37,.29-4.72,.74-7.02,1.44-4.01,1.23-7.77,2.95-11.05,5.62-.43,.35-.81,.32-1.3-.03-.7-.51-1.11-1.3-1.86-1.75-1.7-1.03-3.57-1.46-5.51-1.2-2.93,.39-4.73,2.33-5.11,4.89-.43,2.93,.81,5.09,3.8,6.45,.34,.16,.45,.08,.59-.23,.49-1.08,1.09-2.11,1.75-3.1,.23-.35,.17-.47-.17-.66-.57-.31-1.08-.72-1.48-1.24-.12-.15-.32-.28-.14-.55,.44-.65,1.27-.93,1.99-.55,1.08,.57,2.12,1.19,3.12,1.89,.43,.3,.34,.46,.05,.78-1.94,2.16-3.34,4.65-4.38,7.34-1.31,3.39-1.94,6.97-2.61,10.52-.45,2.34-.56,4.64,.36,6.89,.29,.72,.23,1.4-.05,2.12-.34,.84-.35,1.64,.13,2.54,2.19,4,4.37,8.01,6.78,11.89,.29,.46,.58,.7,1.15,.69,1.46-.02,2.46,.67,3.2,1.95,.63,1.08,1.46,2.04,2.24,3.03,.42,.53,.6,1.12,.42,1.74-.12,.42,0,.65,.25,.93,1.17,1.35,2.37,2.67,3.64,3.93,.24,.23,.46,.31,.78,.3,2.03-.07,4.05-.1,6.08-.17,.64-.02,1.28-.08,1.91-.2,3.22-.6,6.17-1.9,9.01-3.5,3.11-1.76,6.15-3.62,8.86-5.97,.37-.32,.8-.84,1.39-.27,.54,.53,.4,1.04,.01,1.59-.66,.94-1.47,1.73-2.38,2.42-2.46,1.87-5.16,3.36-7.85,4.87-3.42,1.93-7.05,3.04-11,3.19-1.87,.07-3.77,.14-5.6,.7-1.69,.52-3.27,2.9-2.99,4.66,1.86-.66,1.98-.68,3.1-.36-.41,.35-.75,.64-1.08,.95-.34,.32-.59,.7-.73,1.15-.35,1.12,.11,1.69,1.27,1.58,.76-.07,1.49-.27,2.2-.55,1.38-.54,2.79-.68,4.27-.66,4.3,.08,8.56-.13,12.74-1.44,5.05-1.59,9.44-4.12,12.92-8.14,.35-.41,.72-.81,1.11-1.18,.29-.28,.64-.38,1.03-.13,.39,.26,.52,.59,.39,1.04-.25,.81-.66,1.54-1.16,2.22-1.55,2.1-3.55,3.71-5.79,5.01-5.84,3.39-12.08,5.27-19.05,4.99Zm-17-20.23c-1.21-1.03-2.48-1.25-3.87-.92-1.2,.29-2.26,.89-3.3,1.52-1.16,.71-2.37,1.3-3.73,1.51-.53,.08-1.14,.26-1.49-.29-.35-.54,.27-.78,.52-1.13,.19-.27-.08-1.27-.47-1.47-.42-.21-.52,.26-.68,.48-.99,1.35-1.46,2.91-1.51,4.55-.07,2.45,.56,4.65,2.88,5.94,2.47,1.36,5.01,1.1,7.46-.05,1.72-.81,3.37-1.78,5.12-2.56,.22-.1,.44-.22,.63-.37,.59-.45,.54-.99-.13-1.32-.63-.31-1.31-.29-1.99-.25-.31,.02-.62,.03-.7-.37-.08-.38,.18-.54,.47-.66,.53-.2,1.07-.36,1.59-.59,.52-.23,.93-.61,.84-1.25-.09-.67-.61-.93-1.2-1.03-.73-.13-1.46-.02-2.16,.2-.23,.07-.48,.23-.65-.07-.17-.31,.07-.49,.28-.66,.58-.49,1.24-.85,2.08-1.21Zm-5.52-2.95c-.06-.1-.14-.24-.22-.38-.49-.84-.99-1.67-1.46-2.52-1.97-3.54-3.94-7.07-5.89-10.62-.22-.4-.41-.55-.88-.36-1.08,.43-2.17,.83-3.27,1.18-.6,.19-.59,.44-.3,.91,.48,.78,.89,1.6,1.34,2.41,2.01,3.61,4.23,7.1,6.58,10.49,.37,.54,.68,.78,1.34,.38,.76-.46,1.6-.78,2.41-1.16,.14-.06,.33-.06,.35-.33Zm18.47,23.19c-.18,.04-.37,.08-.55,.13-1.09,.29-2.18,.62-3.29,.86-.53,.12-.54,.26-.25,.67,1.29,1.8,2.53,3.64,3.93,5.36q1.38,1.7,3.18,.41s.09-.07,.14-.09c.84-.39,1.07-1.22,1.45-1.95,.15-.28,.1-.48-.12-.72-1.3-1.45-2.59-2.9-3.87-4.37-.18-.2-.35-.33-.62-.3Zm-9.37-5.91c.62-1.26,1.26-2.32,2.02-3.3,.24-.31,.29-.54-.01-.83-.52-.51-1.01-1.05-1.51-1.58-.16-.17-.28-.34-.51-.08-.66,.75-1.55,1.16-2.41,1.6-.28,.14-.37,.25-.17,.53,.84,1.18,1.67,2.37,2.58,3.65Zm-27.87-42.83c1.22-.17,2.34-.67,3.49-1.07-1.2,.25-2.37,.56-3.49,1.07Z"/><path class="i" d="M70.23,121.73c6.97,.28,13.21-1.6,19.05-4.99,2.24-1.3,4.23-2.91,5.79-5.01,.5-.68,.91-1.4,1.16-2.22,.14-.45,0-.79-.39-1.04-.39-.25-.74-.16-1.03,.13-.39,.37-.76,.77-1.11,1.18-3.48,4.02-7.87,6.56-12.92,8.14-4.18,1.31-8.44,1.52-12.74,1.44-1.48-.03-2.89,.12-4.27,.66-.71,.28-1.44,.48-2.2,.55-1.16,.11-1.61-.47-1.27-1.58,.14-.45,.39-.83,.73-1.15,.33-.31,.68-.59,1.08-.95-1.12-.32-1.24-.31-3.1,.36-.28-1.76,1.3-4.15,2.99-4.66,1.83-.56,3.73-.63,5.6-.7,3.95-.15,7.58-1.26,11-3.19,2.68-1.52,5.38-3,7.85-4.87,.91-.69,1.72-1.48,2.38-2.42,.38-.55,.53-1.06-.01-1.59-.59-.58-1.03-.05-1.39,.27-2.71,2.35-5.75,4.22-8.86,5.97-2.84,1.6-5.79,2.9-9.01,3.5-.63,.12-1.27,.18-1.91,.2-2.03,.07-4.05,.11-6.08,.17-.32,.01-.54-.06-.78-.3-1.27-1.26-2.47-2.58-3.64-3.93-.24-.28-.37-.51-.25-.93,.18-.62,0-1.21-.42-1.74-.78-.99-1.61-1.95-2.24-3.03-.74-1.28-1.74-1.97-3.2-1.95-.56,0-.86-.23-1.15-.69-2.41-3.87-4.59-7.88-6.78-11.89-.49-.89-.47-1.69-.13-2.54,.29-.72,.35-1.4,.05-2.12-.92-2.25-.81-4.55-.36-6.89,.68-3.56,1.31-7.13,2.61-10.52,1.04-2.69,2.44-5.18,4.38-7.34,.29-.32,.38-.48-.05-.78-1-.7-2.04-1.32-3.12-1.89-.71-.38-1.55-.1-1.99,.55-.19,.28,.02,.4,.14,.55,.4,.52,.91,.93,1.48,1.24,.34,.19,.4,.31,.17,.66-.66,.99-1.26,2.02-1.75,3.1-.14,.31-.25,.38-.59,.23-2.98-1.36-4.23-3.53-3.8-6.45,.38-2.57,2.18-4.5,5.11-4.89,1.95-.26,3.81,.17,5.51,1.2,.75,.45,1.15,1.24,1.86,1.75,.49,.35,.87,.38,1.3,.03,3.28-2.67,7.04-4.39,11.05-5.62,2.29-.7,4.64-1.15,7.02-1.44,3.68-.46,7.38-.52,11.08-.18,7.23,.66,14.04,2.51,19.91,7.05,.94,.73,.93,.67,1.76-.13,2.11-2.02,6.7-4.14,10.18-1.84,1.63,1.07,2.87,2.43,3.03,4.46,.15,1.8-.33,3.44-1.8,4.62-.74,.59-1.55,1.09-2.31,1.65-.36,.27-.51,.17-.71-.19-.67-1.14-1.36-2.27-2.09-3.38-.22-.33-.2-.46,.13-.69,.51-.35,1.09-.73,.66-1.5-.33-.61-1.05-.76-1.86-.4-.82,.37-1.56,.86-2.28,1.39-.36,.26-.32,.4-.04,.73,2.38,2.85,4.15,6.03,5.27,9.59,.79,2.51,1.17,5.1,1.72,7.66,.01,.05,0,.11,0,.16-.04,3.08,.38,6.15,.11,9.22-.22,2.44-.25,4.89-.47,7.32-.4,4.41,.3,8.71,1.2,12.99,.65,3.08,1.36,6.15,1.69,9.28,.6,5.72,.39,11.37-1.64,16.85-2.12,5.73-6.26,9.39-11.79,11.67-3.82,1.58-7.81,2.54-11.87,3.23-4.89,.83-9.81,1.1-14.76,.95-2.51-.08-5.01-.34-7.5-.65-5.36-.66-10.57-1.88-15.42-4.35-2.84-1.45-5.5-3.14-7.61-5.57-2.49-2.88-3.78-6.26-4.07-10.03-.12-1.51-.28-3.04-.13-4.53,.15-1.49,.32-3,.76-4.45,.09-.29,.18-.39,.5-.34,2.55,.41,4.89-.29,7.12-1.43,.53-.27,.76-.2,1.09,.26,4.01,5.54,8.04,11.08,12.07,16.61,.25,.35,.51,.7,.78,1.04,1.67,2.15,3.32,2.24,5.44,.65,1.5-1.12,2.56-2.62,3.38-4.3,.45-.92,.33-1.75-.38-2.54-.97-1.08-1.89-2.21-2.94-3.44Zm14.1-42.74c.19,.09,.39,.18,.58,.28,4,2.17,8.13,2.42,12.26,.58,4.71-2.1,7.16-5.93,7.75-10.98,.36-3.11-.37-6.02-2.09-8.62-1.95-2.96-4.62-4.85-8.17-5.63-2.29-.5-4.49-.49-6.71,.08-6.54,1.67-10.92,8.77-9.57,15.36,.54,2.62,1.72,4.87,3.49,6.84l-.12,.16c-.13-.04-.26-.08-.38-.13-1.51-.54-3.33-.59-3.91-2.54-2.5-2.71-7.39-2.04-8.97,1.29-.38,.79-.79,1.36-1.68,1.49-.03-.03-.05-.05-.08-.08,.08-.1,.16-.21,.24-.31,3.24-3.7,4.62-7.96,3.41-12.78-1.78-7.11-8.43-10.88-15.24-9.25-7.73,1.85-11.68,9.66-9.96,16.72,.67,2.74,1.99,5.14,4.33,6.87,3.9,2.87,8.13,3.18,12.61,1.69,.22-.07,.44-.33,.66-.1,.19,.19-.04,.4-.08,.6-.56,3.45-.09,5.28,3.51,6.33,.03,0,.05,.01,.08,.02,.39,.06,.5,.27,.5,.67,0,1.28,.16,2.53,.58,3.75,.36,1.05,.97,2.05,2.04,2.29,1.01,.23,2.15,.3,3.17-.21,.31-.15,.55-.21,.9-.04,1.35,.67,2.69,.48,3.94-.24,1.52-.86,1.74-2.41,1.82-3.93,.09-1.66,.09-1.77,1.61-2.15,2.88-.72,4.43-2.73,4.23-5.42-.07-.92-.55-1.68-.84-2.52l.08-.08Z"/><path class="h" d="M17.98,77.31c.73-.01,1.46-.04,2.19-.04,3.58,.01,6.97-.93,10.33-2.04,2.15-.72,4.32-1.38,6.53-1.91,.48-.12,.7-.07,.91,.42,.94,2.27,1.82,4.57,2.52,6.93,.16,.55,0,.8-.45,1.02-1.1,.52-2.22,.99-3.37,1.38-5.61,1.91-9.45,5.7-11.81,11.07-.03,.07-.09,.13-.13,.2,0-.21-.11-.34-.25-.48-3.47-3.58-5.38-7.92-6.22-12.77-.21-1.24-.45-2.5-.24-3.77Z"/><path class="i" d="M53.23,101.5c-.84,.36-1.5,.72-2.08,1.21-.21,.18-.46,.35-.28,.66,.16,.3,.42,.14,.65,.07,.71-.22,1.43-.33,2.16-.2,.59,.1,1.11,.36,1.2,1.03,.09,.64-.32,1.01-.84,1.25-.52,.23-1.06,.39-1.59,.59-.29,.11-.55,.28-.47,.66,.08,.4,.39,.39,.7,.37,.68-.04,1.36-.06,1.99,.25,.67,.33,.72,.87,.13,1.32-.19,.15-.41,.27-.63,.37-1.74,.78-3.39,1.75-5.12,2.56-2.45,1.15-4.99,1.41-7.46,.05-2.33-1.28-2.95-3.49-2.88-5.94,.05-1.64,.52-3.2,1.51-4.55,.16-.22,.26-.69,.68-.48,.39,.2,.67,1.2,.47,1.47-.25,.35-.87,.59-.52,1.13,.35,.55,.96,.37,1.49,.29,1.36-.21,2.57-.8,3.73-1.51,1.04-.63,2.1-1.24,3.3-1.52,1.39-.33,2.66-.1,3.87,.92Z"/><path class="e" d="M17.98,77.31c-.22,1.28,.02,2.53,.24,3.77,.84,4.85,2.75,9.19,6.22,12.77,.14,.14,.26,.28,.25,.48l-1.77,4.37c-2.19-1.48-3.99-3.34-5.44-5.54-1.87-2.84-3.01-5.97-3.85-9.23-.53-2.05-.68-4.14-.79-6.25-.02-.34-.06-.61,.47-.57,1.56,.1,3.13,.14,4.69,.2Z"/><path class="g" d="M47.71,98.55c-.02,.27-.21,.26-.35,.33-.81,.38-1.65,.7-2.41,1.16-.66,.4-.97,.16-1.34-.38-2.36-3.39-4.58-6.88-6.58-10.49-.45-.8-.86-1.62-1.34-2.41-.29-.47-.3-.72,.3-.91,1.1-.35,2.19-.75,3.27-1.18,.47-.19,.66-.04,.88,.36,1.95,3.55,3.92,7.08,5.89,10.62,.47,.85,.97,1.68,1.46,2.52,.08,.14,.16,.28,.22,.38Z"/><path class="e" d="M56.36,144.68c-3.05,1.33-6.19,2.22-9.64,2.01,.33-.92,.89-1.53,1.52-2.08,.18-.16,.43-.3,.31-.59-.12-.29-.41-.33-.69-.31-1.58,.11-2.69,.86-3.19,2.4-1.5-.84-1.72-1.94-.68-3.16,1.64-1.93,5.68-2.63,7.81-1.53-.24,.04-.51-.06-.84,.16,1.17,.74,2.23,1.47,3.34,2.09,.66,.37,1.2,1.02,2.05,1Z"/><path class="g" d="M66.18,121.75c.28-.03,.45,.1,.62,.3,1.28,1.46,2.57,2.92,3.87,4.37,.21,.24,.26,.43,.12,.72-.38,.73-.62,1.56-1.45,1.95-.05,.02-.09,.06-.14,.09q-1.8,1.29-3.18-.41c-1.4-1.72-2.64-3.56-3.93-5.36-.29-.4-.28-.55,.25-.67,1.1-.25,2.19-.57,3.29-.86,.18-.05,.37-.08,.55-.13Z"/><path class="e" d="M104.44,143.06c.95-.44,1.89-.89,2.84-1.33,1.88-.86,5.18,.04,6.38,1.74,.73,1.03,.44,1.99-.88,2.83-.23-.87-.6-1.65-1.4-2.12-.38-.22-.77-.37-1.22-.34-.33,.02-.71,.05-.86,.35-.18,.36,.25,.48,.45,.65,.45,.4,.79,.87,1.07,1.41,.26,.49,.13,.66-.41,.68-2.16,.08-4.28-.12-6.36-.74-.65-.2-1.34-.31-1.92-.69,.19-.06,.44-.01,.51-.3,.15-.63,.67-.84,1.16-1.14,.39-.23,.91-.34,1.11-.85,.18-.07,.48,.14,.56-.27-.24,.04-.42,.1-.56,.27-.17,0-.37,.09-.47-.15Z"/><path class="g" d="M56.81,115.84c-.91-1.29-1.74-2.48-2.58-3.65-.21-.29-.11-.39,.17-.53,.86-.44,1.75-.85,2.41-1.6,.23-.26,.35-.08,.51,.08,.5,.53,.99,1.07,1.51,1.58,.3,.29,.25,.52,.01,.83-.76,.98-1.4,2.04-2.02,3.3Z"/><path class="e" d="M56.36,144.68c-.85,.02-1.39-.63-2.05-1-1.11-.63-2.17-1.35-3.34-2.09,.34-.22,.6-.12,.84-.16h-.02c.05,.17,.2,.14,.33,.16h0c.04,.18,.21,.14,.33,.16h0c0,.11,.07,.15,.17,.16h0c.12,.31,.37,.35,.66,.32h0c.21,.39,.56,.51,.98,.49h0c.05,.17,.19,.17,.33,.16h-.01c.08,.2,.26,.15,.41,.17,.28-.04,.51,.04,.64,.31,.22,.34,.55,.36,.9,.33h-.01c.1,.25,.32,.13,.5,.16h0c.13,.22,0,.36-.16,.5h0l-.17,.17h0c-.13,.01-.29-.03-.33,.16h.02Z"/><path class="e" d="M104.44,143.06c.1,.24,.3,.14,.47,.15h0c-.2,.5-.72,.61-1.11,.84-.49,.29-1.02,.51-1.16,1.14-.07,.29-.32,.24-.51,.3h.02c-.14-.43-.49-.36-.82-.32h0c-.09-.3-.75-.23-.49-.75,.05-.11,.14-.11,.24-.08,.1-.02,.2,0,.23-.14l.29-.06c.3,.36,.45,.06,.62-.14,.65-.51,1.46-.67,2.21-.94Z"/><path class="e" d="M28.94,73.01c1.12-.51,2.29-.82,3.49-1.07-1.15,.4-2.27,.9-3.49,1.07Z"/><path class="e" d="M56.84,144.35c.15-.14,.29-.28,.16-.5,.23,.04,.45,.09,.63,.26-.25,.15-.5,.28-.79,.24Z"/><path class="e" d="M54.24,142.72c-.42,.02-.77-.1-.98-.49,.38,.06,.71,.22,.98,.49Z"/><path class="e" d="M56.52,143.69c-.35,.03-.69,0-.9-.33,.35-.02,.63,.14,.9,.33Z"/><path class="e" d="M53.27,142.23c-.29,.03-.54-.02-.66-.33,.25,.05,.48,.14,.66,.33Z"/><path class="e" d="M57,143.86c-.17-.04-.4,.08-.5-.17,.18,.01,.37,.01,.5,.17Z"/><path class="e" d="M52.45,141.74c-.13-.03-.29,.02-.33-.17l.33,.17Z"/><path class="e" d="M52.13,141.58c-.13-.02-.29,0-.33-.17,.13,.01,.26,.03,.33,.17Z"/><path class="e" d="M54.57,142.88c-.15,.01-.28,.01-.33-.17,.14,0,.28,0,.33,.17Z"/><path class="e" d="M54.97,143.04c-.15-.02-.34,.03-.41-.17,.16,0,.32,.02,.41,.17Z"/><path class="e" d="M52.62,141.91c-.1-.01-.17-.05-.17-.17l.17,.17Z"/><path class="d" d="M66.82,77.17c.89-.13,1.31-.7,1.68-1.49,1.58-3.33,6.47-4,8.97-1.29,.59,1.95,2.41,2,3.91,2.54,.13,.05,.26,.09,.38,.13,.06,.04,.11,.08,.17,.11l.18,.2c.09-.13,.04-.23-.08-.3l-.15-.17c-1.77-1.97-2.95-4.22-3.49-6.84-1.35-6.59,3.03-13.69,9.57-15.36,2.22-.57,4.41-.58,6.71-.08,3.55,.78,6.22,2.67,8.17,5.63,1.71,2.6,2.45,5.51,2.09,8.62-.59,5.05-3.04,8.88-7.75,10.98-4.13,1.85-8.27,1.6-12.26-.58-.19-.1-.39-.19-.58-.28-.06-.02-.17-.07-.17-.06-.06,.09,.02,.11,.09,.14,.29,.84,.77,1.6,.84,2.52,.2,2.69-1.36,4.7-4.23,5.42-1.52,.38-1.52,.49-1.61,2.15-.08,1.52-.3,3.07-1.82,3.93-1.26,.72-2.6,.91-3.94,.24-.35-.17-.59-.11-.9,.04-1.02,.5-2.16,.43-3.17,.21-1.07-.24-1.68-1.24-2.04-2.29-.42-1.21-.58-2.47-.58-3.75,0-.4-.11-.61-.5-.67-.03,0-.05-.01-.08-.02-3.59-1.05-4.06-2.88-3.51-6.33,.03-.2,.27-.41,.08-.6-.23-.22-.45,.03-.66,.1-4.48,1.49-8.71,1.18-12.61-1.69-2.34-1.73-3.66-4.13-4.33-6.87-1.72-7.06,2.23-14.87,9.96-16.72,6.82-1.63,13.46,2.14,15.24,9.25,1.21,4.82-.17,9.08-3.41,12.78-.09,.1-.16,.21-.24,.31l-.09,.12,.17-.05Zm9.87,13.59v.02c.58-1.25,.68-2.51,.14-3.8-.29-.38-.7-.53-1.15-.61-.18-.18-.4-.19-.64-.13-.05-.02-.1-.03-.16-.04-.32-.26-.72-.22-1.14-.37-.04,1.39,.15,2.71,.31,4.03,.2,1.65,.16,1.88,2.05,1.31,.14-.04,.27-.16,.4-.24h-.01l.19-.16Zm14.96-34.29c-5.59-.08-11.51,4.26-11.16,12.05,.24,5.44,4.63,10.35,11.51,10.26,6.01-.08,10.67-4.59,10.73-11.05,.06-6.84-5.14-11.27-11.07-11.26Zm-33.31,.17c-1.68,0-3.24,.39-4.76,1.08-3.8,1.74-6.87,6.7-6.34,11.8,.69,6.6,6.68,9.98,12,8.96,6.65-1.27,10.03-7.96,9.14-12.94-.93-5.22-4.95-8.88-10.03-8.91Zm20.8,28.1c.72,.04,1.53-.13,2.29-.51,1.21-.61,1.75-1.96,1.14-3.28-.81-1.75-2.37-2.2-4.04-2.55-.42-.09-.67,.03-.94,.38-1.5,1.96-6.07,3.14-8.34,.44-.16-.19-.3-.36-.6-.3-1.14,.26-2.25,.6-3.06,1.51-1.26,1.41-.75,3.35,1.03,3.96,.71,.24,1.43,.23,2.16,.08,1.22-.25,2.33-.81,3.45-1.33,.77-.36,1.47-.32,2.22,.1,1.42,.78,2.88,1.51,4.7,1.5Zm-9.98,3.92c.01,.21,0,.59,.06,.96,.19,1.37,.69,1.76,2.09,1.8,.44,.01,.6-.13,.7-.55,.26-1.05,.41-2.11,.44-3.2,.06-1.89,.08-1.89-1.8-1.23-1.44,.51-1.53,.64-1.49,2.21Z"/><path class="e" d="M104.91,143.21c.14-.17,.32-.23,.56-.27-.08,.41-.38,.2-.56,.27h0Z"/><path class="f" d="M91.64,56.47c5.93-.01,11.14,4.42,11.07,11.26-.06,6.46-4.72,10.97-10.73,11.05-6.87,.09-11.27-4.82-11.51-10.26-.35-7.79,5.57-12.13,11.16-12.05Zm-7.72,12.79c-.08,2.06,1.68,4.2,4.19,4.22,2.39,.02,4.21-1.84,4.19-4.2-.02-2.33-1.88-4.18-4.22-4.2-2.34-.02-4.15,1.8-4.15,4.18Z"/><path class="f" d="M58.33,56.64c5.09,.03,9.1,3.68,10.03,8.91,.89,4.98-2.49,11.67-9.14,12.94-5.32,1.01-11.31-2.36-12-8.96-.53-5.09,2.54-10.06,6.34-11.8,1.53-.7,3.09-1.08,4.76-1.08Zm3.31,8.11c-2.41,0-4.21,1.76-4.23,4.14-.01,2.46,1.8,4.3,4.26,4.32,2.35,.01,4.25-1.88,4.26-4.25,0-2.32-1.91-4.2-4.29-4.21Z"/><path class="e" d="M79.13,84.73c-1.82,.02-3.28-.72-4.7-1.5-.76-.41-1.46-.45-2.22-.1-1.12,.52-2.22,1.08-3.45,1.33-.73,.15-1.45,.17-2.16-.08-1.78-.61-2.29-2.56-1.03-3.96,.82-.91,1.92-1.25,3.06-1.51,.3-.07,.44,.11,.6,.3,2.27,2.7,6.84,1.52,8.34-.44,.27-.36,.52-.47,.94-.38,1.67,.35,3.23,.8,4.04,2.55,.61,1.32,.07,2.67-1.14,3.28-.76,.38-1.57,.56-2.29,.51Z"/><path class="e" d="M69.15,88.65c-.04-1.57,.05-1.7,1.49-2.21,1.88-.66,1.86-.66,1.8,1.23-.04,1.09-.19,2.14-.44,3.2-.1,.42-.26,.56-.7,.55-1.4-.03-1.89-.43-2.09-1.8-.05-.37-.04-.75-.06-.96Z"/><path class="e" d="M74.88,86.19c.05,0,.11,.01,.16,.04,.18,.21,.42,.09,.64,.13,.45,.08,.86,.23,1.15,.61-.04,1.27,.07,2.54-.15,3.8v-.02l-.18,.17h.01c-.46-.11-.95,.03-1.34,.14-.68,.19-.73-.22-.77-.57-.15-1.14-.33-2.28-.37-3.44-.02-.66,.15-.97,.84-.87Z"/><path class="f" d="M74.88,86.19c-.69-.11-.87,.21-.84,.87,.04,1.16,.22,2.3,.37,3.44,.04,.35,.09,.77,.77,.57,.39-.11,.88-.26,1.34-.15-.13,.08-.26,.2-.4,.24-1.9,.57-1.85,.34-2.05-1.31-.16-1.32-.36-2.64-.31-4.03,.42,.15,.82,.11,1.14,.37Z"/><path class="f" d="M76.67,90.77c.22-1.26,.12-2.54,.15-3.8,.54,1.29,.44,2.56-.15,3.8Z"/><path class="f" d="M75.67,86.36c-.21-.05-.46,.08-.64-.13,.23-.06,.45-.05,.64,.13Z"/><path class="i" d="M82.04,77.07c.12,.07,.18,.17,.08,.3l-.18-.2,.1-.1Z"/><path class="i" d="M84.25,79.08c-.07-.03-.15-.05-.09-.14,0-.01,.11,.04,.17,.06l-.08,.08Z"/><path class="i" d="M81.94,77.17c-.06-.04-.11-.08-.17-.11l.12-.16,.15,.17-.1,.1Z"/><path class="i" d="M66.82,77.17l-.17,.05,.09-.12s.06,.05,.08,.08Z"/><path class="f" d="M76.49,90.93l.19-.17-.19,.17Z"/><path class="d" d="M83.92,69.26c0-2.38,1.81-4.2,4.15-4.18,2.34,.02,4.21,1.87,4.22,4.2,.02,2.36-1.8,4.22-4.19,4.2-2.51-.02-4.27-2.16-4.19-4.22Zm6.79-1.15c-.12-.37-.39-.53-.74-.5-.28,.03-.54,.18-.48,.53,.07,.38,.35,.53,.71,.49,.31-.03,.45-.25,.51-.52Z"/><path class="d" d="M61.65,64.74c2.37,0,4.29,1.89,4.29,4.21,0,2.36-1.91,4.26-4.26,4.25-2.45-.01-4.27-1.85-4.26-4.32,.01-2.38,1.81-4.15,4.23-4.14Zm2.4,2.86c-.13-.44-.33-.91-1.01-.91-.66,0-.85,.44-.87,.98-.03,.6,.27,.97,.9,.99,.63,.01,.91-.37,.98-1.06Z"/><path class="f" d="M90.71,68.11c-.05,.28-.19,.5-.51,.52-.37,.03-.64-.11-.71-.49-.06-.35,.2-.5,.48-.53,.35-.04,.63,.12,.74,.5Z"/><path class="f" d="M64.05,67.61c-.07,.7-.34,1.08-.98,1.06-.63-.01-.93-.39-.9-.99,.02-.54,.22-.98,.87-.98,.68,0,.88,.47,1.01,.91Z"/></g></g></svg>